<svg width="38" height="38" viewBox="0 0 38 38" fill="none" xmlns="http://www.w3.org/2000/svg">
<g clip-path="url(#clip0_4_1454)">
<path d="M17.2371 5.33039C19.5236 5.32831 21.7593 6.00441 23.6615 7.27319C25.5636 8.54197 27.0467 10.3464 27.9232 12.4582C28.7996 14.57 29.03 16.8944 28.5852 19.1372C28.1404 21.38 27.0404 23.4404 25.4244 25.058C23.8083 26.6755 21.7489 27.7774 19.5065 28.2242C17.2641 28.671 14.9396 28.4428 12.8269 27.5682C10.7143 26.6937 8.90852 25.2123 7.63801 23.3113C6.3675 21.4103 5.68934 19.1752 5.68934 16.8887C5.7032 13.8294 6.92396 10.8991 9.08629 8.73479C11.2486 6.57048 14.1778 5.34705 17.2371 5.33039ZM17.2371 3.1665C14.5231 3.1665 11.8701 3.9713 9.61346 5.47912C7.35685 6.98693 5.59804 9.13005 4.55944 11.6375C3.52084 14.1449 3.24909 16.9039 3.77857 19.5658C4.30804 22.2276 5.61496 24.6727 7.53404 26.5918C9.45313 28.5109 11.8982 29.8178 14.56 30.3473C17.2219 30.8768 19.981 30.605 22.4884 29.5664C24.9958 28.5278 27.1389 26.769 28.6467 24.5124C30.1545 22.2558 30.9593 19.6027 30.9593 16.8887C30.9593 13.2494 29.5136 9.75907 26.9402 7.18565C24.3668 4.61223 20.8765 3.1665 17.2371 3.1665Z" fill="black"/>
<path d="M36.9444 35.1394L29.1649 27.3071L27.666 28.7955L35.4455 36.6277C35.5432 36.7261 35.6593 36.8043 35.7873 36.8578C35.9152 36.9114 36.0525 36.9392 36.1912 36.9397C36.3299 36.9401 36.4673 36.9133 36.5956 36.8607C36.7239 36.8081 36.8407 36.7307 36.9391 36.633C37.0375 36.5352 37.1157 36.4191 37.1692 36.2911C37.2228 36.1632 37.2506 36.0259 37.251 35.8872C37.2515 35.7486 37.2247 35.6111 37.1721 35.4828C37.1195 35.3545 37.0421 35.2378 36.9444 35.1394Z" fill="black"/>
</g>
<defs>
<clipPath id="clip0_4_1454">
<rect width="38" height="38" fill="white"/>
</clipPath>
</defs>
</svg>
