<svg width="38" height="38" viewBox="0 0 38 38" fill="none" xmlns="http://www.w3.org/2000/svg">
<g clip-path="url(#clip0_4_1458)">
<path d="M37.6906 10.5389C37.5817 10.3842 37.4372 10.2579 37.2693 10.1707C37.1014 10.0835 36.915 10.0379 36.7259 10.0378H11.5235L9.61583 3.45905C8.8677 0.868524 7.08998 0.588867 6.36085 0.588867H1.2742C0.622221 0.588867 0.0949707 1.11671 0.0949707 1.76805C0.0949707 2.4194 0.622814 2.94721 1.27416 2.94721H6.36022C6.52113 2.94721 7.01216 2.94721 7.34707 4.10442L13.9098 28.2231C14.0523 28.732 14.516 29.0835 15.045 29.0835H31.0751C31.5727 29.0835 32.0168 28.7717 32.1848 28.3033L37.8349 11.6159C37.965 11.2543 37.9109 10.8518 37.6907 10.5389H37.6906ZM30.2452 26.7257H15.94L12.1864 12.3968H35.0493L30.2452 26.7257ZM27.9065 31.4734C26.2665 31.4734 24.9377 32.8022 24.9377 34.4421C24.9377 36.0821 26.2665 37.4109 27.9065 37.4109C29.5464 37.4109 30.8752 36.0821 30.8752 34.4421C30.8752 32.8022 29.5464 31.4734 27.9065 31.4734ZM17.219 31.4734C15.579 31.4734 14.2502 32.8022 14.2502 34.4421C14.2502 36.0821 15.579 37.4109 17.219 37.4109C18.8589 37.4109 20.1877 36.0821 20.1877 34.4421C20.1877 32.8022 18.8589 31.4734 17.219 31.4734Z" fill="black"/>
</g>
<defs>
<clipPath id="clip0_4_1458">
<rect width="38" height="38" fill="white"/>
</clipPath>
</defs>
</svg>
