<svg width="14" height="13" viewBox="0 0 14 13" fill="none" xmlns="http://www.w3.org/2000/svg">
<path d="M14 4.05965C14 4.25731 13.9862 4.47018 13.9587 4.66784C13.9035 5.06316 13.8071 5.42807 13.6555 5.77778C13.6555 5.79298 13.6417 5.80819 13.628 5.8386C12.1949 9.45731 7 13 7 13C7 13 1.72244 9.39649 0.330709 5.76257C0.192913 5.42807 0.0964567 5.07836 0.0413386 4.69825V4.68304C0.0137796 4.48538 0 4.28772 0 4.07485C0 1.82456 1.65354 0 3.69291 0C5.13976 0 6.3937 0.927485 7 2.2655C7.6063 0.927485 8.86024 0 10.3071 0C12.3465 0 14 1.82456 14 4.05965Z" fill="black"/>
</svg>
